<svg width="1440" height="765" viewBox="0 0 1440 765" fill="none" xmlns="http://www.w3.org/2000/svg">
<g opacity="0.1" clip-path="url(#clip0_245_1296)">
<path d="M228.83 632.86C228.83 618.45 228.742 607.731 230.655 595.555C232.185 585.655 236.392 575.756 239.834 566.24C242.512 559.009 245.189 551.778 248.632 544.539C250.927 539.593 253.604 535.023 257.046 530.452C266.609 517.508 275.788 503.806 286.115 491.629C294.53 481.729 305.239 473.731 314.801 465.358C325.128 456.601 335.455 447.844 346.164 439.087C355.727 431.472 365.286 424.241 374.85 416.627C384.798 408.637 394.737 401.398 404.301 392.649C416.925 381.223 429.166 369.806 441.023 357.621C450.195 348.864 456.316 337.83 458.617 325.261C460.143 317.271 462.053 308.898 460.91 301.284C458.992 287.197 454.406 273.486 445.609 261.31C439.489 252.936 433.369 245.322 424.572 239.609C418.068 235.422 411.189 230.851 403.917 228.95C393.595 226.281 382.496 225.138 372.173 225.522C362.993 225.906 353.431 229.334 344.252 231.61C339.28 232.753 333.925 233.895 329.335 236.181C325.51 237.707 322.068 240.751 318.243 243.036C313.271 245.697 307.916 247.982 303.327 251.026C292.617 258.265 281.142 265.496 271.581 273.87C258.576 284.912 247.102 297.856 234.48 309.273C222.24 320.316 210.001 332.117 196.614 341.249C180.55 352.292 162.956 361.807 145.362 370.948C137.712 375.135 128.915 376.278 120.883 379.322C109.791 383.508 98.6987 385.035 87.2243 387.32C63.1281 392.649 38.6491 390.739 14.5529 390.364C13.4055 390.364 12.2581 390.364 11.4935 390.364C1.93106 389.221 -7.24863 387.695 -16.8102 386.177C-22.5479 385.035 -28.6674 384.267 -34.0223 382.366C-43.9667 378.938 -53.911 374.751 -63.4735 370.565C-72.6532 366.378 -81.8321 362.191 -89.8645 356.862C-106.694 345.444 -122.376 332.117 -135.379 316.504C-143.412 306.988 -151.061 296.713 -157.181 286.055C-162.536 276.914 -166.361 266.639 -169.803 256.355C-174.01 242.277 -177.071 227.807 -180.895 213.721C-186.632 191.645 -183.955 168.801 -183.955 146.717C-183.955 129.586 -179.365 112.839 -174.01 96.4684C-171.333 87.713 -169.421 78.9568 -165.213 70.9628C-159.094 58.7805 -151.826 47.3596 -144.559 35.5583C-139.587 27.5635 -134.232 19.5695 -128.113 12.3362C-119.698 2.81934 -110.901 -6.31726 -100.956 -13.9318C-86.0397 -25.733 -69.9758 -36.3924 -53.9111 -46.6707C-48.1743 -50.478 -40.9065 -52.3812 -34.787 -55.0458C-26.3727 -58.4719 -17.9576 -62.6595 -9.5434 -65.7053C-3.80661 -67.6085 1.93106 -68.7512 8.0506 -69.8929C19.1423 -72.1772 30.2349 -74.8419 41.3265 -76.3648C49.3589 -77.5065 57.7732 -77.5065 66.1883 -77.5065C75.3672 -77.5065 84.5469 -78.268 93.7266 -77.1263C105.201 -75.6034 116.676 -72.9387 128.15 -71.0346C135.035 -69.8929 141.537 -68.37 148.421 -66.8471C155.688 -64.9439 162.956 -62.6595 170.606 -60.3752C171.753 -60.3752 172.518 -59.6146 173.665 -59.6146C182.08 -58.8531 190.112 -55.4261 197.761 -52.7615C203.116 -50.8583 208.471 -50.0968 213.826 -48.5739C230.273 -44.3864 247.102 -40.58 263.549 -36.3925C273.11 -34.1081 283.055 -31.8237 292.617 -29.5394C298.736 -28.0165 305.239 -26.8747 311.358 -25.733C318.626 -24.2101 325.893 -23.4486 333.16 -21.9257C362.993 -14.6924 392.828 -14.3121 423.046 -15.4538C434.136 -15.835 444.842 -16.9767 455.557 -18.8799C465.88 -20.7839 476.211 -22.6871 486.151 -26.4944C504.128 -32.9655 521.722 -39.8185 538.174 -50.478C551.94 -59.6146 563.414 -70.6543 572.595 -83.5973C580.624 -95.0182 587.512 -107.962 585.594 -123.189C585.219 -126.997 585.594 -130.803 585.594 -134.991C585.594 -146.411 579.857 -155.548 574.888 -165.446C570.302 -174.963 563.414 -182.577 555.001 -188.287C548.113 -192.856 539.7 -194.379 532.429 -198.566C524.015 -203.515 514.835 -200.089 507.188 -202.754C494.948 -206.56 482.707 -206.18 471.233 -204.657C449.437 -201.231 427.248 -203.896 405.452 -200.851C397.414 -199.708 390.151 -201.992 382.121 -201.612C373.699 -201.612 365.286 -201.612 357.256 -202.373C350.372 -203.515 344.252 -207.322 337.367 -208.464C326.657 -210.367 317.479 -214.936 308.299 -220.265C298.355 -225.595 288.792 -232.067 281.908 -241.203C274.258 -251.101 267.373 -262.141 260.488 -272.801C258.194 -276.227 257.429 -280.414 256.282 -284.221C254.752 -290.312 254.369 -297.165 252.074 -303.256C245.189 -319.245 249.014 -335.995 249.014 -352.365C249.014 -360.36 252.839 -368.354 255.134 -376.348C256.664 -380.916 257.429 -385.865 259.724 -390.053C264.696 -399.189 270.051 -407.946 275.788 -416.701C283.82 -429.265 296.059 -438.02 307.916 -447.157C312.888 -450.964 319.008 -453.629 324.745 -456.293C332.395 -460.1 340.045 -463.527 348.077 -466.953C349.989 -467.714 352.667 -466.953 354.961 -467.714C363.76 -469.998 372.941 -472.282 381.738 -474.566C384.414 -475.328 387.474 -474.566 390.535 -475.328C406.978 -476.47 422.279 -482.18 436.045 -490.175C449.82 -498.17 457.083 -511.494 463.587 -525.96C466.647 -532.812 465.88 -539.284 467.414 -545.756C469.324 -553.75 467.414 -562.126 466.264 -569.358C464.354 -578.114 459.76 -586.489 455.174 -594.484C449.82 -604.001 442.933 -612.376 433.752 -618.467C424.572 -624.559 416.158 -631.411 406.211 -635.98C394.737 -641.689 382.496 -645.877 371.023 -650.445C370.639 -650.445 370.264 -650.445 369.88 -650.445C360.316 -651.968 350.372 -654.253 340.809 -654.633C325.51 -655.394 310.211 -655.775 294.912 -654.633C283.055 -653.491 271.963 -650.065 260.488 -644.735C246.719 -637.883 235.245 -628.746 226.065 -617.325C220.328 -610.473 216.503 -602.098 211.913 -594.103C208.854 -588.012 206.176 -581.921 203.882 -575.45C201.586 -568.978 198.909 -562.126 197.761 -555.273C194.702 -539.284 192.407 -522.914 190.494 -506.545C188.964 -494.362 187.817 -482.18 186.669 -469.999C185.522 -456.674 184.758 -442.969 182.845 -429.645C181.315 -417.844 178.255 -406.043 175.961 -394.622C174.43 -386.246 174.048 -377.11 171.37 -369.115C165.251 -353.126 160.279 -336.756 151.482 -321.529C141.919 -305.921 130.445 -292.596 116.676 -280.795C108.643 -273.943 98.6987 -269.756 89.1371 -264.425C74.6025 -256.812 58.5387 -253.386 42.8567 -251.101C29.4694 -249.198 15.3175 -251.101 1.16644 -252.624C-5.33582 -253.004 -11.4553 -254.909 -17.5757 -256.812C-24.8426 -259.096 -32.1095 -261.761 -38.9945 -265.187C-45.1141 -268.233 -51.2336 -271.659 -56.9712 -275.465C-63.0908 -279.272 -68.8284 -282.698 -74.5652 -286.886C-84.1277 -294.119 -94.072 -300.972 -103.252 -308.966C-116.638 -320.387 -129.643 -332.95 -143.029 -344.751C-156.034 -356.172 -169.038 -367.973 -182.425 -379.013C-190.457 -385.485 -198.872 -392.718 -208.434 -396.525C-228.705 -404.138 -250.124 -409.087 -271.925 -401.855C-276.516 -400.332 -281.488 -399.571 -286.46 -398.048C-304.054 -391.957 -318.206 -382.439 -327.768 -365.689C-333.122 -356.172 -336.183 -346.274 -339.243 -335.995C-342.685 -324.575 -342.685 -313.915 -341.919 -302.875C-341.538 -294.881 -337.713 -287.267 -335.035 -279.653C-333.888 -275.846 -332.741 -272.039 -331.21 -268.233C-326.238 -258.335 -321.648 -248.055 -315.911 -238.539C-310.174 -229.022 -303.671 -219.884 -297.934 -210.367C-290.668 -198.566 -282.635 -187.145 -275.75 -175.344C-268.866 -163.543 -262.747 -151.741 -256.244 -139.94C-251.272 -130.803 -248.595 -120.905 -245.152 -111.007C-237.502 -87.4046 -234.443 -63.8021 -235.59 -39.4374C-236.355 -26.4944 -239.032 -13.5507 -241.327 -0.606812C-242.474 6.24542 -244.004 13.4788 -245.917 19.9499C-247.446 25.6603 -250.124 31.3707 -252.419 37.0812C-253.949 41.649 -255.097 46.5981 -257.392 50.7856C-261.598 59.5419 -266.189 68.2982 -270.778 76.6733C-275.75 85.0484 -280.722 93.4235 -286.077 101.417C-289.52 106.748 -294.11 111.313 -297.934 116.642C-310.174 132.63 -325.091 145.574 -341.538 157C-353.012 164.99 -365.251 172.604 -377.873 179.46C-387.053 184.789 -397.38 188.592 -407.324 192.404C-412.679 194.689 -418.416 195.832 -424.153 197.349C-431.42 199.635 -438.688 202.303 -445.572 204.589C-446.337 204.589 -446.72 204.589 -447.485 204.589C-459.724 206.106 -471.964 208.008 -484.203 209.534C-487.263 209.918 -490.323 210.293 -493 211.06C-493 185.548 -493 160.428 -493 134.915C-484.585 133.398 -476.553 132.63 -468.139 130.729C-460.872 128.827 -453.987 126.167 -447.102 123.882C-443.277 122.739 -439.07 121.596 -434.863 120.07C-426.831 116.642 -418.416 113.598 -410.767 109.411C-402.735 105.225 -394.702 100.276 -387.053 94.9464C-374.431 86.1901 -362.956 75.5307 -353.777 62.968C-347.657 54.5929 -340.007 46.598 -335.8 37.0812C-329.68 23.7571 -323.178 10.8133 -319.353 -3.27228C-313.616 -24.5903 -311.704 -46.2896 -313.616 -67.9897C-314.764 -82.4556 -319.353 -96.1608 -326.62 -108.724C-332.358 -118.622 -336.565 -129.661 -342.685 -139.178C-350.335 -151.741 -359.132 -163.543 -367.164 -175.724C-372.518 -184.099 -378.256 -192.475 -383.228 -200.851C-390.495 -213.794 -397.762 -227.118 -404.647 -240.442C-406.941 -244.629 -407.707 -249.96 -409.237 -254.527C-411.531 -260.999 -413.826 -267.471 -416.121 -274.323C-416.121 -275.085 -416.121 -275.465 -416.121 -276.227C-417.269 -291.074 -419.564 -305.921 -419.564 -321.148C-419.564 -330.666 -418.034 -340.564 -415.739 -350.081C-412.679 -362.643 -409.619 -375.587 -404.265 -387.008C-398.144 -400.712 -392.025 -415.179 -379.786 -425.457C-372.136 -432.31 -365.634 -440.685 -357.984 -447.157C-350.717 -452.867 -342.685 -457.055 -334.653 -461.623C-328.533 -465.049 -322.031 -468.476 -315.911 -471.521C-311.704 -473.425 -307.114 -474.948 -302.524 -475.709C-293.345 -477.612 -284.165 -479.515 -274.603 -480.658C-265.423 -481.8 -255.479 -483.323 -246.299 -482.561C-230.618 -481.038 -214.936 -478.754 -199.637 -475.328C-191.604 -473.425 -184.337 -468.094 -176.305 -465.811C-162.536 -462.004 -152.209 -452.867 -140.352 -445.634C-130.407 -439.543 -121.993 -430.787 -113.196 -423.173C-100.956 -412.514 -89.0998 -401.474 -77.2426 -390.814C-69.593 -383.962 -62.708 -376.729 -54.6765 -369.877C-38.9945 -356.552 -22.5479 -343.99 -3.42383 -335.234C8.43335 -329.904 19.9078 -327.24 32.1469 -329.143C52.0364 -331.807 69.6304 -339.421 81.4875 -356.172C87.2244 -364.547 89.9018 -375.207 93.7266 -384.724C96.0214 -391.196 97.9341 -397.667 100.229 -404.138C100.229 -404.9 100.612 -405.661 100.993 -406.423C102.141 -412.514 103.671 -418.605 104.436 -425.077C106.348 -444.872 107.496 -464.288 109.409 -484.084C110.556 -496.647 111.703 -509.59 113.233 -522.153C113.998 -530.147 115.145 -538.142 117.058 -546.136C119.736 -559.46 122.795 -572.404 126.238 -585.348C128.914 -594.865 131.592 -604.382 135.035 -613.519C138.094 -621.894 141.919 -629.888 146.509 -637.502C151.863 -647.019 157.601 -656.536 164.486 -664.912C179.403 -683.565 196.232 -700.697 218.415 -711.356C227.212 -715.543 236.392 -718.97 245.189 -722.777C276.935 -736.862 310.594 -735.339 343.87 -733.817C354.579 -733.436 365.669 -731.532 376.384 -729.629C382.88 -728.487 389.767 -727.726 396.271 -725.822C404.301 -723.157 411.947 -718.97 419.602 -715.924C428.399 -712.117 437.58 -709.072 445.993 -704.884C454.023 -701.077 461.294 -695.748 468.94 -691.179C481.181 -683.946 491.887 -674.048 501.452 -663.77C515.602 -648.542 528.226 -631.792 534.73 -611.615C537.79 -601.717 541.609 -592.2 544.669 -582.302C545.053 -581.16 544.669 -579.637 544.669 -578.495C544.669 -560.603 545.82 -542.33 544.286 -524.818C543.527 -515.3 541.234 -505.402 535.489 -496.647C532.053 -491.317 530.136 -484.464 527.075 -478.754C524.782 -474.566 522.106 -470.379 519.813 -466.191C512.158 -453.629 501.835 -442.969 489.978 -433.833C483.858 -428.884 476.97 -424.696 470.091 -420.508C458.234 -412.895 444.842 -409.087 431.459 -405.281C417.684 -401.094 403.918 -398.809 389.384 -397.667C382.88 -396.906 376.759 -393.099 370.264 -391.576C357.256 -388.911 347.694 -380.916 339.28 -372.161C335.073 -367.973 332.778 -361.501 329.718 -356.172C323.981 -344.751 325.893 -332.95 327.04 -321.909C328.953 -307.444 335.837 -295.261 350.372 -288.409C359.933 -283.841 369.113 -282.698 379.061 -280.795C389 -278.892 398.564 -277.749 408.129 -278.892C432.227 -282.698 456.316 -281.176 480.414 -282.318C497.241 -283.08 514.076 -282.318 530.903 -281.176C539.316 -280.414 547.346 -276.988 555.384 -274.705C559.97 -273.562 564.181 -271.659 568.767 -270.516C581.008 -267.471 591.714 -261.38 601.279 -253.386C612.752 -243.488 623.467 -233.209 633.406 -222.169C638.76 -216.078 641.82 -207.322 645.647 -199.708C648.707 -193.997 651.768 -187.907 654.061 -181.816C656.737 -174.963 658.271 -167.349 660.181 -160.117C664.392 -146.411 664.776 -131.946 663.625 -118.24C662.858 -107.581 659.414 -97.3026 657.121 -87.0242C655.979 -82.4555 654.828 -77.8868 653.293 -73.319C646.414 -56.1876 637.234 -40.58 625.377 -25.733C614.67 -12.4089 602.046 -2.1297 589.421 8.52979C581.008 15.382 570.302 19.9499 560.738 25.28C552.708 29.4676 544.286 33.6551 535.489 37.0812C530.136 39.3655 524.015 40.8876 518.662 43.1719C512.925 45.076 507.188 47.3596 501.068 49.2636C500.301 49.2636 499.926 49.6439 499.159 50.0242C490.362 51.5471 480.797 51.5471 472.384 54.2126C458.992 58.4001 445.226 55.7347 432.227 58.7805C413.098 63.3492 393.978 60.3033 374.85 60.6837C363.376 60.6837 351.519 58.7805 340.045 57.2576C331.63 56.1158 322.833 56.1158 315.183 53.07C307.152 50.025 299.502 50.7856 291.47 49.2636C275.406 46.2178 259.724 42.4105 244.042 38.223C233.715 35.5583 223.388 31.7511 213.06 28.7061C206.559 26.8021 200.057 25.6603 193.555 23.7571C187.052 21.8539 180.55 19.1884 173.665 16.9049C169.458 15.382 165.251 14.2394 161.043 13.0977C149.951 10.433 138.86 7.76831 127.767 4.72253C123.178 3.58081 118.588 2.05786 113.615 1.29639C100.612 -0.606812 87.2243 -3.27228 74.2198 -3.27228C59.3033 -3.27228 44.7686 -0.987976 30.2349 1.29639C20.6724 2.81927 11.1108 5.86426 1.54834 9.29034C-6.48318 12.3361 -14.8983 16.1434 -21.7824 21.0925C-34.4051 29.8479 -46.6442 39.3656 -58.5013 49.2636C-65.0036 54.5929 -70.3577 61.0648 -75.3298 67.917C-81.4502 76.2921 -86.8043 85.0484 -91.7773 93.8038C-97.1313 103.322 -100.192 113.598 -102.869 124.64C-107.458 143.297 -110.901 161.946 -108.224 180.986C-105.546 200.777 -102.104 220.952 -92.9247 239.225C-84.1277 256.355 -71.8878 270.826 -57.354 282.627C-48.5561 289.858 -38.9945 297.097 -27.1373 299.757C-22.9306 300.516 -18.7231 303.56 -14.8983 305.47C-14.5155 305.47 -13.7509 306.229 -12.9854 306.229C-4.18845 307.755 4.60855 309.657 13.7883 310.416C24.1154 311.558 34.8243 313.085 45.1514 313.085C55.8612 313.085 66.5701 311.942 76.8972 309.657C86.8416 307.372 96.0214 302.042 105.584 299.757C117.823 297.097 127.767 290.625 137.712 284.528C145.744 279.583 153.012 273.111 160.279 267.014C170.606 258.641 180.55 249.883 190.877 240.751C198.144 234.279 204.646 227.048 211.913 220.577C219.563 213.721 227.212 206.49 235.245 200.393C246.719 191.645 258.576 183.263 270.815 175.648C279.231 170.703 288.409 166.9 297.589 163.088C306.004 159.285 314.801 155.857 323.215 152.43C328.188 150.528 333.542 149.385 338.897 148.627C358.021 145.574 377.527 142.53 396.655 145.199C408.512 146.717 420.744 148.243 431.843 152.813C456.699 163.088 480.03 176.416 496.866 198.492C502.219 205.731 508.723 211.819 513.692 219.05C518.662 226.665 522.106 235.038 525.933 243.036C533.963 260.551 537.407 279.199 537.407 298.231C537.407 310.032 537.79 322.217 536.256 334.018C535.114 343.159 530.136 351.532 527.843 360.665C524.782 373.233 516.369 382.366 510.632 393.024C507.572 399.121 502.219 404.45 497.241 409.396C482.332 424.241 467.414 439.087 451.346 453.173C439.489 463.832 426.865 473.731 413.865 482.872C400.857 491.629 389.384 502.288 377.143 512.179C362.609 523.98 348.459 536.165 336.22 550.635C330.865 556.724 326.276 563.954 322.068 570.81C317.86 577.657 313.271 584.513 311.358 592.127C307.916 604.312 306.649 616.744 306.649 629.432C306.649 629.432 304.944 678.564 387.977 707.556C471.012 736.547 552.921 723.331 552.921 723.331V799.399C552.921 799.399 518.509 803.799 468.02 799.399C433.079 796.346 390.432 789.081 346.164 773.213C237.922 734.415 228.83 632.86 228.83 632.86Z" fill="white"/>
<path d="M1273.9 1221.22C1274.67 1208.66 1274.67 1196.09 1276.58 1183.91C1278.11 1174.01 1282.31 1164.11 1285.76 1154.59C1288.43 1147.36 1291.11 1140.13 1294.55 1132.89C1296.85 1127.95 1299.52 1123.38 1302.97 1118.81C1312.53 1105.86 1321.71 1092.16 1332.03 1079.98C1340.45 1070.08 1351.16 1062.09 1360.72 1053.71C1371.05 1044.96 1381.37 1036.2 1392.09 1027.44C1401.65 1019.83 1411.21 1012.6 1420.77 1004.98C1430.72 996.992 1440.66 989.753 1450.22 981.004C1462.85 969.578 1475.09 958.161 1486.94 945.976C1496.12 937.219 1502.24 926.185 1504.54 913.616C1506.06 905.627 1507.97 897.253 1506.83 889.639C1504.91 875.552 1500.33 861.841 1491.53 849.665C1485.41 841.291 1479.29 833.677 1470.49 827.964C1463.99 823.777 1457.11 819.207 1449.84 817.305C1439.52 814.636 1428.42 813.494 1418.09 813.877C1408.91 814.261 1399.35 817.689 1390.17 819.965C1385.2 821.108 1379.85 822.251 1375.26 824.536C1371.43 826.062 1367.99 829.106 1364.16 831.392C1359.19 834.052 1353.84 836.337 1349.24 839.381C1338.54 846.621 1327.06 853.851 1317.5 862.225C1304.5 873.267 1293.02 886.211 1280.4 897.628C1268.16 908.671 1255.92 920.472 1242.54 929.604C1226.47 940.647 1208.88 950.163 1191.28 959.303C1183.64 963.49 1174.84 964.633 1166.8 967.677C1155.71 971.864 1144.62 973.39 1133.15 975.675C1109.05 981.004 1084.57 979.094 1060.48 978.719C1059.33 978.719 1058.18 978.719 1057.42 978.719C1047.85 977.577 1038.67 976.05 1029.11 974.532C1023.37 973.39 1017.25 972.622 1011.9 970.721C1001.95 967.293 992.012 963.106 982.447 958.92C973.267 954.733 964.086 950.546 956.057 945.217C939.23 933.799 923.545 920.472 910.537 904.859C902.507 895.343 894.861 885.068 888.741 874.41C883.388 865.269 879.56 854.994 876.116 844.711C871.914 830.633 868.854 816.162 865.026 802.076C859.29 780 861.966 757.156 861.966 735.072C861.966 717.941 866.552 701.194 871.914 684.823C874.591 676.066 876.5 667.309 880.711 659.319C886.831 647.134 894.094 635.716 901.365 623.915C906.335 615.917 911.688 607.927 917.808 600.688C926.222 591.172 935.019 582.04 944.966 574.425C959.884 562.624 975.943 551.965 992.012 541.682C997.748 537.879 1005.01 535.977 1011.13 533.309C1019.54 529.881 1027.97 525.694 1036.38 522.65C1042.12 520.748 1047.85 519.606 1053.97 518.463C1065.06 516.178 1076.15 513.518 1087.24 511.991C1095.28 510.849 1103.7 510.849 1112.11 510.849C1121.29 510.849 1130.47 510.09 1139.65 511.232C1151.12 512.75 1162.6 515.419 1174.07 517.321C1180.96 518.463 1187.45 519.981 1194.34 521.507C1201.61 523.409 1208.88 525.694 1216.52 527.979C1217.67 527.979 1218.44 528.738 1219.58 528.738C1228 529.506 1236.03 532.925 1243.68 535.594C1249.03 537.495 1254.4 538.254 1259.75 539.78C1276.19 543.967 1293.02 547.779 1309.47 551.965C1319.03 554.251 1328.97 556.527 1338.54 558.812C1344.66 560.339 1351.16 561.481 1357.28 562.624C1364.55 564.142 1371.82 564.909 1379.08 566.427C1408.91 573.666 1438.75 574.041 1468.97 572.899C1480.06 572.524 1490.76 571.381 1501.48 569.471C1511.8 567.57 1522.13 565.668 1532.07 561.865C1550.05 555.393 1567.64 548.538 1584.09 537.879C1597.86 528.738 1609.34 517.704 1618.52 504.76C1626.55 493.334 1633.43 480.391 1631.52 465.162C1631.14 461.359 1631.52 457.556 1631.52 453.36C1631.52 441.943 1625.78 432.811 1620.81 422.911C1616.22 413.395 1609.33 405.78 1600.92 400.067C1594.03 395.497 1585.62 393.979 1578.35 389.792C1569.94 384.838 1560.76 388.266 1553.11 385.606C1540.87 381.794 1528.63 382.178 1517.15 383.696C1495.36 387.123 1473.17 384.463 1451.37 387.507C1443.33 388.65 1436.07 386.365 1428.04 386.74C1419.62 386.74 1411.21 386.74 1403.18 385.981C1396.29 384.838 1390.17 381.035 1383.29 379.893C1372.57 377.991 1363.4 373.421 1354.22 368.091C1344.27 362.762 1334.71 356.29 1327.83 347.149C1320.18 337.25 1313.3 326.216 1306.41 315.557C1304.12 312.13 1303.35 307.943 1302.2 304.131C1300.67 298.043 1300.29 291.187 1298 285.099C1291.11 269.111 1294.94 252.356 1294.94 235.993C1294.94 227.995 1298.76 220.005 1301.06 212.007C1302.58 207.436 1303.35 202.491 1305.64 198.304C1310.61 189.163 1315.97 180.406 1321.71 171.658C1329.74 159.089 1341.98 150.332 1353.84 141.199C1358.81 137.388 1364.93 134.727 1370.67 132.059C1378.31 128.256 1385.97 124.828 1394 121.4C1395.91 120.641 1398.59 121.4 1400.88 120.641C1409.68 118.356 1418.86 116.071 1427.66 113.785C1430.34 113.027 1433.4 113.785 1436.46 113.027C1452.9 111.884 1468.2 106.175 1481.97 98.1804C1495.74 90.1856 1503 76.8615 1509.51 62.3956C1512.57 55.5434 1511.8 49.0715 1513.34 42.5996C1515.24 34.6048 1513.34 26.2297 1512.18 18.9972C1510.28 10.2409 1505.68 1.86575 1501.09 -6.12906C1495.74 -15.6459 1488.85 -24.021 1479.67 -30.1118C1470.49 -36.2034 1462.08 -43.0556 1452.13 -47.6243C1440.66 -53.3339 1428.42 -57.5214 1416.94 -62.0901C1416.56 -62.0901 1416.18 -62.0901 1415.8 -62.0901C1406.24 -63.6131 1396.29 -65.8974 1386.73 -66.2777C1371.43 -67.0392 1356.13 -67.4195 1340.83 -66.2777C1328.97 -65.136 1317.88 -61.7099 1306.41 -56.3797C1292.64 -49.5275 1281.17 -40.3909 1271.99 -28.97C1266.25 -22.1178 1262.43 -13.7427 1257.83 -5.74788C1254.77 0.342865 1252.09 6.43446 1249.8 12.9055C1247.51 19.3774 1244.83 26.2297 1243.68 33.0827C1240.62 49.0715 1238.33 65.4414 1236.42 81.8105C1234.88 93.9929 1233.74 106.175 1232.59 118.356C1231.44 131.683 1230.68 145.386 1228.76 158.714C1227.24 170.515 1224.18 182.316 1221.88 193.734C1220.35 202.107 1219.97 211.248 1217.29 219.237C1211.17 235.225 1206.2 251.597 1197.4 266.826C1187.84 282.43 1176.36 295.758 1162.6 307.559C1154.57 314.415 1144.62 318.601 1135.06 323.931C1120.52 331.545 1104.46 334.973 1088.78 337.25C1075.39 339.16 1061.24 337.25 1047.09 335.732C1040.58 335.348 1034.46 333.447 1028.34 331.545C1021.08 329.26 1013.81 326.591 1006.93 323.172C1000.81 320.119 994.688 316.7 988.951 312.888C982.831 309.085 977.094 305.658 971.357 301.471C961.793 294.24 951.845 287.384 942.673 279.386C929.282 267.969 916.283 255.409 902.891 243.607C889.883 232.181 876.884 220.38 863.492 209.338C855.462 202.874 847.049 195.635 837.485 191.832C817.214 184.218 795.793 179.264 773.996 186.503C769.402 188.021 764.432 188.788 759.463 190.306C741.869 196.403 727.718 205.918 718.154 222.665C712.801 232.181 709.741 242.081 706.681 252.356C703.237 263.782 703.237 274.441 704.004 285.483C704.388 293.473 708.207 301.087 710.883 308.702C712.034 312.513 713.185 316.316 714.71 320.119C719.68 330.019 724.275 340.302 730.011 349.818C735.748 359.334 742.252 368.467 747.989 377.991C755.252 389.792 763.29 401.21 770.169 413.011C777.057 424.812 783.177 436.614 789.681 448.415C794.651 457.556 797.327 467.447 800.771 477.347C808.417 500.949 811.477 524.551 810.335 548.921C809.568 561.865 806.891 574.8 804.59 587.744C803.447 594.6 801.913 601.831 800.004 608.302C798.478 614.016 795.793 619.728 793.5 625.433C791.974 630.003 790.823 634.958 788.53 639.144C784.319 647.893 779.733 656.65 775.139 665.032C770.169 673.405 765.199 681.779 759.846 689.777C756.402 695.106 751.808 699.668 747.989 704.997C735.748 720.985 720.831 733.929 704.388 745.355C692.905 753.345 680.673 760.959 668.049 767.815C658.868 773.144 648.546 776.947 638.598 780.759C633.245 783.044 627.508 784.187 621.771 785.704C614.5 787.99 607.237 790.659 600.35 792.944C599.582 792.944 599.199 792.944 598.44 792.944C586.199 794.462 573.959 796.363 561.718 797.889C558.658 798.273 555.598 798.648 552.921 799.416C552.921 773.903 552.921 748.783 552.921 723.271C561.334 721.753 569.364 720.985 577.786 719.084C585.049 717.182 591.936 714.522 598.815 712.237C602.643 711.094 606.854 709.952 611.056 708.425C619.094 704.997 627.508 701.953 635.154 697.767C643.184 693.58 651.222 688.634 658.868 683.305C671.493 674.548 682.966 663.889 692.147 651.321C698.267 642.947 705.913 634.958 710.124 625.433C716.236 612.114 722.74 599.17 726.568 585.084C732.304 563.767 734.214 542.066 732.304 520.365C731.154 505.903 726.568 492.192 719.297 479.632C713.56 469.732 709.357 458.698 703.237 449.174C695.591 436.614 686.794 424.812 678.755 412.627C673.402 404.254 667.665 395.881 662.696 387.507C655.425 374.563 648.162 361.236 641.274 347.917C638.981 343.722 638.214 338.392 636.688 333.83C634.387 327.358 632.094 320.887 629.801 314.031C629.801 313.272 629.801 312.888 629.801 312.129C628.65 297.284 626.357 282.43 626.357 267.21C626.357 257.694 627.891 247.794 630.184 238.278C633.245 225.709 636.305 212.766 641.658 201.348C647.778 187.645 653.899 173.175 666.139 162.9C673.786 156.045 680.29 147.671 687.936 141.199C695.207 135.486 703.237 131.3 711.267 126.729C717.387 123.31 723.891 119.882 730.011 116.838C734.214 114.928 738.808 113.41 743.394 112.643C752.575 110.741 761.756 108.84 771.32 107.697C780.5 106.556 790.44 105.033 799.62 105.794C815.305 107.317 830.989 109.599 846.282 113.027C854.32 114.928 861.583 120.257 869.612 122.543C883.388 126.354 893.71 135.486 905.568 142.717C915.515 148.814 923.929 157.571 932.726 165.186C944.967 175.844 956.824 186.878 968.681 197.537C976.327 204.392 983.215 211.623 991.244 218.479C1006.93 231.806 1023.37 244.366 1042.5 253.123C1054.36 258.453 1065.83 261.113 1078.07 259.212C1097.96 256.551 1115.55 248.937 1127.41 232.181C1133.15 223.808 1135.82 213.149 1139.65 203.633C1141.94 197.161 1143.85 190.689 1146.15 184.218C1146.15 183.459 1146.53 182.691 1146.91 181.932C1148.06 175.844 1149.59 169.747 1150.36 163.275C1152.27 143.485 1153.42 124.069 1155.33 104.271C1156.48 91.7085 1157.62 78.7655 1159.15 66.202C1159.92 58.2081 1161.06 50.2132 1162.98 42.2193C1165.66 28.8951 1168.72 15.9514 1172.16 3.00752C1174.84 -6.50934 1177.52 -16.0271 1180.96 -25.1636C1184.02 -33.5387 1187.84 -41.5327 1192.43 -49.1463C1197.79 -58.6641 1203.52 -68.1809 1210.41 -76.556C1225.32 -95.2103 1242.15 -112.342 1264.33 -123C1273.13 -127.188 1282.31 -130.615 1291.11 -134.421C1322.85 -148.507 1356.52 -146.984 1389.79 -145.461C1400.5 -145.081 1411.59 -143.177 1422.31 -141.273C1428.8 -140.132 1435.69 -139.37 1442.19 -137.467C1450.22 -134.802 1457.87 -130.615 1465.52 -127.569C1474.32 -123.762 1483.5 -120.717 1491.91 -116.529C1499.94 -112.722 1507.21 -107.393 1514.86 -102.824C1527.1 -95.5906 1537.81 -85.6926 1547.37 -75.4143C1561.52 -60.187 1574.15 -43.4367 1580.65 -23.2596C1583.71 -13.3615 1587.53 -3.84467 1590.59 6.05336C1590.97 7.1951 1590.59 8.71797 1590.59 9.86058C1590.59 27.7525 1591.74 46.0257 1590.21 63.5374C1589.45 73.0551 1587.16 82.9531 1581.41 91.7085C1577.97 97.0386 1576.06 103.891 1573 109.599C1570.7 113.785 1568.03 117.972 1565.73 122.167C1558.08 134.728 1547.76 145.386 1535.9 154.518C1529.78 159.473 1522.89 163.659 1516.01 167.846C1504.15 175.461 1490.76 179.263 1477.38 183.075C1463.61 187.262 1449.84 189.547 1435.3 190.689C1428.8 191.448 1422.68 195.26 1416.18 196.778C1403.18 199.447 1393.61 207.436 1385.2 216.193C1381 220.38 1378.7 226.852 1375.64 232.181C1369.9 243.607 1371.82 255.409 1372.96 266.442C1374.88 280.913 1381.76 293.097 1396.29 299.945C1405.85 304.515 1415.03 305.658 1424.98 307.559C1434.92 309.461 1444.49 310.603 1454.05 309.461C1478.15 305.658 1502.24 307.175 1526.33 306.041C1543.16 305.274 1560 306.041 1576.82 307.175C1585.24 307.943 1593.27 311.371 1601.31 313.647C1605.89 314.79 1610.1 316.7 1614.69 317.842C1626.93 320.887 1637.64 326.975 1647.2 334.973C1658.67 344.864 1669.39 355.148 1679.33 366.19C1684.68 372.278 1687.74 381.035 1691.57 388.65C1694.63 394.354 1697.69 400.451 1699.98 406.539C1702.66 413.395 1704.19 421.009 1706.1 428.24C1710.31 441.943 1710.7 456.413 1709.55 470.116C1708.78 480.774 1705.33 491.049 1703.04 501.333C1701.9 505.903 1700.75 510.465 1699.21 515.035C1692.34 532.166 1683.15 547.779 1671.3 562.624C1660.59 575.943 1647.97 586.226 1635.34 596.885C1626.93 603.741 1616.22 608.302 1606.66 613.632C1598.63 617.818 1590.21 622.014 1581.41 625.433C1576.06 627.718 1569.94 629.245 1564.58 631.53C1558.85 633.431 1553.11 635.716 1546.99 637.618C1546.22 637.618 1545.85 638.002 1545.08 638.377C1536.28 639.903 1526.72 639.903 1518.3 642.564C1504.91 646.759 1491.15 644.09 1478.15 647.134C1459.02 651.704 1439.9 648.66 1420.77 649.035C1409.3 649.035 1397.44 647.134 1385.97 645.616C1377.55 644.474 1368.76 644.474 1361.1 641.429C1353.07 638.377 1345.43 639.144 1337.39 637.618C1321.33 634.574 1305.64 630.762 1289.97 626.576C1279.64 623.915 1269.31 620.104 1258.98 617.06C1252.48 615.158 1245.97 614.015 1239.48 612.114C1232.97 610.212 1226.47 607.544 1219.58 605.258C1215.38 603.741 1211.17 602.598 1206.97 601.455C1195.87 598.786 1184.78 596.126 1173.69 593.073C1169.1 591.939 1164.51 590.413 1159.54 589.654C1146.53 587.744 1133.15 585.084 1120.14 585.084C1105.22 585.084 1090.69 587.369 1076.15 589.654C1066.59 591.172 1057.03 594.216 1047.47 597.644C1039.44 600.688 1031.03 604.499 1024.14 609.445C1011.52 618.202 999.274 627.718 987.417 637.618C980.922 642.947 975.56 649.419 970.59 656.275C964.47 664.648 959.117 673.405 954.147 682.162C948.785 691.678 945.734 701.953 943.049 712.996C938.463 731.652 935.019 750.301 937.695 769.341C940.372 789.132 943.816 809.307 952.996 827.58C961.793 844.711 974.034 859.181 988.568 870.982C997.365 878.213 1006.93 885.452 1018.79 888.112C1022.99 888.871 1027.2 891.915 1031.03 893.825C1031.4 893.825 1032.17 894.584 1032.94 894.584C1041.73 896.111 1050.53 898.012 1059.71 898.771C1070.03 899.914 1080.75 901.44 1091.07 901.44C1101.78 901.44 1112.49 900.297 1122.82 898.012C1132.76 895.727 1141.94 890.398 1151.51 888.112C1163.74 885.452 1173.69 878.98 1183.64 872.883C1191.67 867.938 1198.93 861.466 1206.2 855.369C1216.52 846.996 1226.47 838.239 1236.8 829.106C1244.06 822.634 1250.57 815.404 1257.83 808.932C1265.49 802.076 1273.13 794.845 1281.17 788.749C1292.64 780 1304.5 771.618 1316.73 764.003C1325.15 759.058 1334.33 755.255 1343.51 751.443C1351.92 747.64 1360.72 744.213 1369.14 740.785C1374.11 738.883 1379.46 737.741 1384.82 736.982C1403.94 733.929 1423.45 730.885 1442.58 733.554C1454.43 735.072 1466.67 736.598 1477.76 741.169C1502.62 751.443 1525.95 764.771 1542.79 786.847C1548.14 794.086 1554.64 800.175 1559.61 807.405C1564.58 815.02 1568.03 823.393 1571.85 831.392C1579.88 848.906 1583.33 867.554 1583.33 886.586C1583.33 898.387 1583.71 910.572 1582.18 922.374C1581.03 931.514 1576.06 939.888 1573.76 949.02C1570.7 961.589 1562.29 970.721 1556.55 981.38C1553.49 987.476 1548.14 992.806 1543.16 997.751C1528.25 1012.6 1513.34 1027.44 1497.27 1041.53C1485.41 1052.19 1472.79 1062.09 1459.79 1071.23C1446.78 1079.98 1435.3 1090.64 1423.06 1100.53C1408.53 1112.34 1394.38 1124.52 1382.14 1138.99C1376.79 1145.08 1372.2 1152.31 1367.99 1159.17C1363.78 1166.01 1359.19 1172.87 1357.28 1180.48C1353.84 1192.67 1352.3 1205.23 1350.01 1217.79C1350.01 1217.79 1345.2 1302.73 1486.94 1335.56C1628.68 1368.39 1725.43 1363.7 1725.43 1363.7V1437.88C1725.43 1437.88 1596.28 1443.85 1436.03 1403.35C1275.77 1362.85 1275.77 1235.37 1275.77 1235.37L1273.9 1221.22Z" fill="white"/>
</g>
<defs>
<clipPath id="clip0_245_1296">
<rect width="2218" height="2188" fill="white" transform="translate(-493 -745)"/>
</clipPath>
</defs>
</svg>
