<svg width="324" height="80" viewBox="0 0 324 80" fill="none" xmlns="http://www.w3.org/2000/svg">
<g clip-path="url(#clip0_366_377)">
<path d="M239.851 62.155V36.148H247.224V62.155H239.851ZM245.345 33.0623H241.73C240.691 33.0623 239.851 32.2197 239.851 31.1789V27.5557C239.851 26.515 240.691 25.6724 241.73 25.6724H245.345C246.383 25.6724 247.224 26.515 247.224 27.5557V31.1789C247.224 32.2197 246.383 33.0623 245.345 33.0623Z" fill="#1E1E1E"/>
<path d="M167.46 36.5352H140.488V42.586H167.46V36.5352Z" fill="#1E1E1E"/>
<path d="M167.46 46.3186H140.488V52.3694H167.46V46.3186Z" fill="#1E1E1E"/>
<path d="M167.46 56.1042H140.488V62.1551H167.46V56.1042Z" fill="#1E1E1E"/>
<path d="M235.763 42.586V36.5352H213.701C210.99 36.5352 208.793 38.7373 208.793 41.4542V57.2314C208.793 59.9483 210.99 62.1505 213.701 62.1505H235.763V56.0996H214.828V42.5814H235.763V42.586Z" fill="#1E1E1E"/>
<path d="M199.799 36.5535H198.611V36.5375H177.69V23.0285H201.092V16.9822H176.563C173.855 16.9822 171.657 19.1843 171.657 21.8989V37.6671C171.657 40.3816 173.855 42.5838 176.563 42.5838H177.751V42.5998H198.672V56.1088H171.546V62.1551H199.799C202.508 62.1551 204.705 59.9529 204.705 57.2384V41.4702C204.705 38.7556 202.508 36.5535 199.799 36.5535Z" fill="#1E1E1E"/>
<path d="M131.959 16.9797V17.0162L131.927 16.9797H131.959Z" fill="#1E1E1E"/>
<path d="M136.346 31.2358L122.708 17.014L122.676 16.9775H99.2559V24.0395H119.677L129.364 34.1394V55.0908H106.302V36.5329H99.2559V57.6482C99.2559 60.135 101.269 62.1528 103.75 62.1528H136.405V31.2973L136.349 31.2381L136.346 31.2358Z" fill="#1E1E1E"/>
<path d="M256.123 23.5453C255.219 23.5453 254.448 23.2264 253.814 22.5911C253.18 21.9352 252.862 21.1541 252.862 20.2477C252.862 19.3413 253.18 18.5693 253.814 17.9339C254.448 17.2986 255.219 16.9797 256.123 16.9797C257.027 16.9797 257.807 17.2986 258.461 17.9339C259.095 18.5693 259.413 19.3413 259.413 20.2477C259.413 21.1541 259.095 21.9534 258.461 22.5911C257.807 23.2264 257.027 23.5453 256.123 23.5453ZM256.123 30.1381C255.219 30.1381 254.448 29.8102 253.814 29.1543C253.18 28.5166 252.862 27.7469 252.862 26.8405C252.862 25.9342 253.18 25.1621 253.814 24.5268C254.448 23.8709 255.219 23.543 256.123 23.543C257.027 23.543 257.807 23.8709 258.461 24.5268C259.095 25.1621 259.413 25.9342 259.413 26.8405C259.413 27.7469 259.095 28.5166 258.461 29.1543C257.807 29.8102 257.027 30.1381 256.123 30.1381ZM256.123 36.7036C255.219 36.7036 254.448 36.3848 253.814 35.7494C253.18 35.114 252.862 34.3329 252.862 33.406C252.862 32.4792 253.18 31.7277 253.814 31.0923C254.448 30.4569 255.219 30.1381 256.123 30.1381C257.027 30.1381 257.807 30.4569 258.461 31.0923C259.095 31.7277 259.413 32.4997 259.413 33.406C259.413 34.3124 259.095 35.1118 258.461 35.7494C257.807 36.3848 257.027 36.7036 256.123 36.7036ZM256.123 43.2965C255.219 43.2965 254.448 42.9685 253.814 42.3127C253.18 41.6773 252.862 40.9053 252.862 39.9989C252.862 39.0925 253.18 38.3205 253.814 37.6851C254.448 37.0293 255.219 36.7013 256.123 36.7013C257.027 36.7013 257.807 37.0293 258.461 37.6851C259.095 38.3205 259.413 39.0925 259.413 39.9989C259.413 40.9053 259.095 41.675 258.461 42.3127C257.807 42.9685 257.027 43.2965 256.123 43.2965ZM256.123 49.862C255.219 49.862 254.448 49.5431 253.814 48.9078C253.18 48.2724 252.862 47.5004 252.862 46.594C252.862 45.6876 253.18 44.8883 253.814 44.2506C254.448 43.6153 255.219 43.2965 256.123 43.2965C257.027 43.2965 257.807 43.6153 258.461 44.2506C259.095 44.9065 259.413 45.6876 259.413 46.594C259.413 47.5004 259.095 48.2724 258.461 48.9078C257.807 49.5431 257.027 49.862 256.123 49.862ZM256.123 56.4548C255.219 56.4548 254.448 56.136 253.814 55.5006C253.18 54.8447 252.862 54.0636 252.862 53.1572C252.862 52.2509 253.18 51.4789 253.814 50.8435C254.448 50.1876 255.219 49.8597 256.123 49.8597C257.027 49.8597 257.807 50.1876 258.461 50.8435C259.095 51.4789 259.413 52.2509 259.413 53.1572C259.413 54.0636 259.095 54.8447 258.461 55.5006C257.807 56.136 257.027 56.4548 256.123 56.4548ZM256.123 63.0203C255.219 63.0203 254.448 62.7015 253.814 62.0661C253.18 61.4308 252.862 60.6587 252.862 59.7524C252.862 58.846 253.18 58.0649 253.814 57.409C254.448 56.7736 255.219 56.4548 256.123 56.4548C257.027 56.4548 257.807 56.7736 258.461 57.409C259.095 58.0649 259.413 58.846 259.413 59.7524C259.413 60.6587 259.095 61.4308 258.461 62.0661C257.807 62.7015 257.027 63.0203 256.123 63.0203ZM262.701 36.7036C261.797 36.7036 261.017 36.3848 260.363 35.7494C259.729 35.114 259.411 34.3329 259.411 33.406C259.411 32.4792 259.729 31.7277 260.363 31.0923C261.017 30.4569 261.797 30.1381 262.701 30.1381C263.606 30.1381 264.376 30.4569 265.01 31.0923C265.664 31.7277 265.992 32.4997 265.992 33.406C265.992 34.3124 265.664 35.1118 265.01 35.7494C264.376 36.3848 263.606 36.7036 262.701 36.7036ZM269.252 43.2965C268.348 43.2965 267.578 42.9685 266.944 42.3127C266.31 41.6773 265.992 40.9053 265.992 39.9989C265.992 39.0925 266.31 38.3205 266.944 37.6851C267.578 37.0293 268.348 36.7013 269.252 36.7013C270.157 36.7013 270.954 37.0293 271.59 37.6851C272.224 38.3205 272.543 39.0925 272.543 39.9989C272.543 40.9053 272.224 41.675 271.59 42.3127C270.936 42.9685 270.157 43.2965 269.252 43.2965ZM275.831 49.862C274.926 49.862 274.156 49.5431 273.522 48.9078C272.867 48.2724 272.54 47.5004 272.54 46.594C272.54 45.6876 272.867 44.8883 273.522 44.2506C274.156 43.6153 274.926 43.2965 275.831 43.2965C276.735 43.2965 277.505 43.6153 278.139 44.2506C278.794 44.9065 279.121 45.6876 279.121 46.594C279.121 47.5004 278.794 48.2724 278.139 48.9078C277.505 49.5431 276.735 49.862 275.831 49.862ZM282.409 23.5453C281.486 23.5453 280.707 23.2264 280.071 22.5911C279.437 21.9352 279.118 21.1541 279.118 20.2477C279.118 19.3413 279.437 18.5693 280.071 17.9339C280.705 17.2986 281.484 16.9797 282.409 16.9797C283.334 16.9797 284.083 17.2986 284.717 17.9339C285.351 18.5693 285.669 19.3413 285.669 20.2477C285.669 21.1541 285.351 21.9534 284.717 22.5911C284.083 23.2264 283.313 23.5453 282.409 23.5453ZM282.409 30.1381C281.486 30.1381 280.707 29.8102 280.071 29.1543C279.437 28.5166 279.118 27.7469 279.118 26.8405C279.118 25.9342 279.437 25.1621 280.071 24.5268C280.705 23.8709 281.484 23.543 282.409 23.543C283.334 23.543 284.083 23.8709 284.717 24.5268C285.351 25.1621 285.669 25.9342 285.669 26.8405C285.669 27.7469 285.351 28.5166 284.717 29.1543C284.083 29.8102 283.313 30.1381 282.409 30.1381ZM282.409 36.7036C281.486 36.7036 280.707 36.3848 280.071 35.7494C279.437 35.114 279.118 34.3329 279.118 33.406C279.118 32.4792 279.437 31.7277 280.071 31.0923C280.705 30.4569 281.484 30.1381 282.409 30.1381C283.334 30.1381 284.083 30.4569 284.717 31.0923C285.351 31.7277 285.669 32.4997 285.669 33.406C285.669 34.3124 285.351 35.1118 284.717 35.7494C284.083 36.3848 283.313 36.7036 282.409 36.7036ZM282.409 43.2965C281.486 43.2965 280.707 42.9685 280.071 42.3127C279.437 41.6773 279.118 40.9053 279.118 39.9989C279.118 39.0925 279.437 38.3205 280.071 37.6851C280.705 37.0293 281.484 36.7013 282.409 36.7013C283.334 36.7013 284.083 37.0293 284.717 37.6851C285.351 38.3205 285.669 39.0925 285.669 39.9989C285.669 40.9053 285.351 41.675 284.717 42.3127C284.083 42.9685 283.313 43.2965 282.409 43.2965ZM282.409 49.862C281.486 49.862 280.707 49.5431 280.071 48.9078C279.437 48.2724 279.118 47.5004 279.118 46.594C279.118 45.6876 279.437 44.8883 280.071 44.2506C280.705 43.6153 281.484 43.2965 282.409 43.2965C283.334 43.2965 284.083 43.6153 284.717 44.2506C285.351 44.9065 285.669 45.6876 285.669 46.594C285.669 47.5004 285.351 48.2724 284.717 48.9078C284.083 49.5431 283.313 49.862 282.409 49.862ZM282.409 56.4548C281.486 56.4548 280.707 56.136 280.071 55.5006C279.437 54.8447 279.118 54.0636 279.118 53.1572C279.118 52.2509 279.437 51.4789 280.071 50.8435C280.705 50.1876 281.484 49.8597 282.409 49.8597C283.334 49.8597 284.083 50.1876 284.717 50.8435C285.351 51.4789 285.669 52.2509 285.669 53.1572C285.669 54.0636 285.351 54.8447 284.717 55.5006C284.083 56.136 283.313 56.4548 282.409 56.4548ZM282.409 63.0203C281.486 63.0203 280.707 62.7015 280.071 62.0661C279.437 61.4308 279.118 60.6587 279.118 59.7524C279.118 58.846 279.437 58.0649 280.071 57.409C280.705 56.7736 281.484 56.4548 282.409 56.4548C283.334 56.4548 284.083 56.7736 284.717 57.409C285.351 58.0649 285.669 58.846 285.669 59.7524C285.669 60.6587 285.351 61.4308 284.717 62.0661C284.083 62.7015 283.313 63.0203 282.409 63.0203Z" fill="#1E1E1E"/>
<path d="M294.454 30.1381C293.55 30.1381 292.779 29.8102 292.145 29.1543C291.511 28.5166 291.193 27.7469 291.193 26.8405C291.193 25.9342 291.511 25.1621 292.145 24.5268C292.779 23.8709 293.55 23.543 294.454 23.543C295.358 23.543 296.138 23.8709 296.792 24.5268C297.426 25.1621 297.744 25.9342 297.744 26.8405C297.744 27.7469 297.426 28.5166 296.792 29.1543C296.138 29.8102 295.358 30.1381 294.454 30.1381ZM294.454 36.7036C293.55 36.7036 292.779 36.3848 292.145 35.7494C291.511 35.114 291.193 34.3329 291.193 33.406C291.193 32.4792 291.511 31.7277 292.145 31.0923C292.779 30.4569 293.55 30.1381 294.454 30.1381C295.358 30.1381 296.138 30.4569 296.792 31.0923C297.426 31.7277 297.744 32.4997 297.744 33.406C297.744 34.3124 297.426 35.1118 296.792 35.7494C296.138 36.3848 295.358 36.7036 294.454 36.7036ZM294.454 43.2965C293.55 43.2965 292.779 42.9685 292.145 42.3127C291.511 41.6773 291.193 40.9053 291.193 39.9989C291.193 39.0925 291.511 38.3205 292.145 37.6851C292.779 37.0293 293.55 36.7013 294.454 36.7013C295.358 36.7013 296.138 37.0293 296.792 37.6851C297.426 38.3205 297.744 39.0925 297.744 39.9989C297.744 40.9053 297.426 41.675 296.792 42.3127C296.138 42.9685 295.358 43.2965 294.454 43.2965ZM294.454 49.862C293.55 49.862 292.779 49.5431 292.145 48.9078C291.511 48.2724 291.193 47.5004 291.193 46.594C291.193 45.6876 291.511 44.8883 292.145 44.2506C292.779 43.6153 293.55 43.2965 294.454 43.2965C295.358 43.2965 296.138 43.6153 296.792 44.2506C297.426 44.9065 297.744 45.6876 297.744 46.594C297.744 47.5004 297.426 48.2724 296.792 48.9078C296.138 49.5431 295.358 49.862 294.454 49.862ZM294.454 56.4548C293.55 56.4548 292.779 56.136 292.145 55.5006C291.511 54.8447 291.193 54.0636 291.193 53.1572C291.193 52.2509 291.511 51.4789 292.145 50.8435C292.779 50.1876 293.55 49.8597 294.454 49.8597C295.358 49.8597 296.138 50.1876 296.792 50.8435C297.426 51.4789 297.744 52.2509 297.744 53.1572C297.744 54.0636 297.426 54.8447 296.792 55.5006C296.138 56.136 295.358 56.4548 294.454 56.4548ZM301.032 23.5453C300.128 23.5453 299.349 23.2264 298.694 22.5911C298.06 21.9352 297.742 21.1541 297.742 20.2477C297.742 19.3413 298.06 18.5693 298.694 17.9339C299.349 17.2986 300.128 16.9797 301.032 16.9797C301.937 16.9797 302.707 17.2986 303.341 17.9339C303.995 18.5693 304.323 19.3413 304.323 20.2477C304.323 21.1541 303.995 21.9534 303.341 22.5911C302.707 23.2264 301.937 23.5453 301.032 23.5453ZM301.032 63.0203C300.128 63.0203 299.349 62.7015 298.694 62.0661C298.06 61.4308 297.742 60.6587 297.742 59.7524C297.742 58.846 298.06 58.0649 298.694 57.409C299.349 56.7736 300.128 56.4548 301.032 56.4548C301.937 56.4548 302.707 56.7736 303.341 57.409C303.995 58.0649 304.323 58.846 304.323 59.7524C304.323 60.6587 303.995 61.4308 303.341 62.0661C302.707 62.7015 301.937 63.0203 301.032 63.0203ZM307.583 23.5453C306.679 23.5453 305.909 23.2264 305.275 22.5911C304.641 21.9352 304.323 21.1541 304.323 20.2477C304.323 19.3413 304.641 18.5693 305.275 17.9339C305.909 17.2986 306.679 16.9797 307.583 16.9797C308.488 16.9797 309.285 17.2986 309.922 17.9339C310.555 18.5693 310.874 19.3413 310.874 20.2477C310.874 21.1541 310.555 21.9534 309.922 22.5911C309.267 23.2264 308.488 23.5453 307.583 23.5453ZM307.583 43.2965C306.679 43.2965 305.909 42.9685 305.275 42.3127C304.641 41.6773 304.323 40.9053 304.323 39.9989C304.323 39.0925 304.641 38.3205 305.275 37.6851C305.909 37.0293 306.679 36.7013 307.583 36.7013C308.488 36.7013 309.285 37.0293 309.922 37.6851C310.555 38.3205 310.874 39.0925 310.874 39.9989C310.874 40.9053 310.555 41.675 309.922 42.3127C309.288 42.9503 308.488 43.2965 307.583 43.2965ZM307.583 63.0203C306.679 63.0203 305.909 62.7015 305.275 62.0661C304.641 61.4308 304.323 60.6587 304.323 59.7524C304.323 58.846 304.641 58.0649 305.275 57.409C305.909 56.7736 306.679 56.4548 307.583 56.4548C308.488 56.4548 309.285 56.7736 309.922 57.409C310.555 58.0649 310.874 58.846 310.874 59.7524C310.874 60.6587 310.555 61.4308 309.922 62.0661C309.267 62.7015 308.488 63.0203 307.583 63.0203ZM314.162 23.5453C313.257 23.5453 312.487 23.2264 311.853 22.5911C311.199 21.9352 310.871 21.1541 310.871 20.2477C310.871 19.3413 311.199 18.5693 311.853 17.9339C312.487 17.2986 313.257 16.9797 314.162 16.9797C315.066 16.9797 315.836 17.2986 316.47 17.9339C317.125 18.5693 317.452 19.3413 317.452 20.2477C317.452 21.1541 317.125 21.9534 316.47 22.5911C315.836 23.2264 315.066 23.5453 314.162 23.5453ZM314.162 43.2965C313.257 43.2965 312.487 42.9685 311.853 42.3127C311.199 41.6773 310.871 40.9053 310.871 39.9989C310.871 39.0925 311.199 38.3205 311.853 37.6851C312.487 37.0293 313.257 36.7013 314.162 36.7013C315.066 36.7013 315.836 37.0293 316.47 37.6851C317.125 38.3205 317.452 39.0925 317.452 39.9989C317.452 40.9053 317.125 41.675 316.47 42.3127C315.836 42.9685 315.066 43.2965 314.162 43.2965ZM314.162 63.0203C313.257 63.0203 312.487 62.7015 311.853 62.0661C311.199 61.4308 310.871 60.6587 310.871 59.7524C310.871 58.846 311.199 58.0649 311.853 57.409C312.487 56.7736 313.257 56.4548 314.162 56.4548C315.066 56.4548 315.836 56.7736 316.47 57.409C317.125 58.0649 317.452 58.846 317.452 59.7524C317.452 60.6587 317.125 61.4308 316.47 62.0661C315.836 62.7015 315.066 63.0203 314.162 63.0203ZM320.74 30.1381C319.817 30.1381 319.038 29.8102 318.402 29.1543C317.768 28.5166 317.45 27.7469 317.45 26.8405C317.45 25.9342 317.768 25.1621 318.402 24.5268C319.036 23.8709 319.815 23.543 320.74 23.543C321.665 23.543 322.414 23.8709 323.048 24.5268C323.682 25.1621 324.001 25.9342 324.001 26.8405C324.001 27.7469 323.682 28.5166 323.048 29.1543C322.414 29.8102 321.644 30.1381 320.74 30.1381ZM320.74 43.2965C319.817 43.2965 319.038 42.9685 318.402 42.3127C317.768 41.6773 317.45 40.9053 317.45 39.9989C317.45 39.0925 317.768 38.3205 318.402 37.6851C319.036 37.0293 319.815 36.7013 320.74 36.7013C321.665 36.7013 322.414 37.0293 323.048 37.6851C323.682 38.3205 324.001 39.0925 324.001 39.9989C324.001 40.9053 323.682 41.675 323.048 42.3127C322.414 42.9685 321.644 43.2965 320.74 43.2965ZM320.74 49.862C319.817 49.862 319.038 49.5431 318.402 48.9078C317.768 48.2724 317.45 47.5004 317.45 46.594C317.45 45.6876 317.768 44.8883 318.402 44.2506C319.036 43.6153 319.815 43.2965 320.74 43.2965C321.665 43.2965 322.414 43.6153 323.048 44.2506C323.682 44.9065 324.001 45.6876 324.001 46.594C324.001 47.5004 323.682 48.2724 323.048 48.9078C322.414 49.5431 321.644 49.862 320.74 49.862ZM320.74 56.4548C319.817 56.4548 319.038 56.136 318.402 55.5006C317.768 54.8447 317.45 54.0636 317.45 53.1572C317.45 52.2509 317.768 51.4789 318.402 50.8435C319.036 50.1876 319.815 49.8597 320.74 49.8597C321.665 49.8597 322.414 50.1876 323.048 50.8435C323.682 51.4789 324.001 52.2509 324.001 53.1572C324.001 54.0636 323.682 54.8447 323.048 55.5006C322.414 56.136 321.644 56.4548 320.74 56.4548Z" fill="#1E1E1E"/>
<path d="M4.89955 32.8709C4.83365 32.8709 4.76776 32.8641 4.69959 32.8481C4.21787 32.7388 3.91565 32.2583 4.02699 31.7755C5.56306 25.0187 8.97148 18.8449 13.8887 13.9167C18.8059 8.98863 24.9661 5.57265 31.7079 4.03318C32.1896 3.92387 32.6691 4.22447 32.7782 4.70726C32.8872 5.19006 32.5873 5.67057 32.1056 5.77988C19.0763 8.75406 8.73971 19.1136 5.77211 32.1718C5.67667 32.5862 5.30856 32.8686 4.90182 32.8686L4.89955 32.8709Z" fill="#1E1E1E"/>
<path d="M31.9052 75.9873C31.8393 75.9873 31.7734 75.9805 31.7053 75.9646C24.9634 74.4251 18.8033 71.0091 13.886 66.081C8.96882 61.1529 5.5604 54.9791 4.02434 48.2223C3.91527 47.7395 4.21521 47.2589 4.69693 47.1496C5.17866 47.0403 5.65811 47.3409 5.76718 47.8237C8.73478 60.8819 19.0714 71.2414 32.1006 74.2156C32.5824 74.3249 32.8846 74.8054 32.7732 75.2882C32.6778 75.7027 32.3097 75.9851 31.9029 75.9851L31.9052 75.9873Z" fill="#1E1E1E"/>
<path d="M47.9181 75.9875C47.509 75.9875 47.1409 75.7051 47.0478 75.2906C46.9387 74.8078 47.2386 74.3273 47.7204 74.218C60.7496 71.2438 71.0862 60.8843 74.0538 47.8262C74.1629 47.3434 74.6423 47.0428 75.1241 47.1521C75.6058 47.2614 75.908 47.7419 75.7967 48.2247C74.2606 54.9815 70.8522 61.1553 65.935 66.0834C61.0178 71.0116 54.8576 74.4275 48.1157 75.967C48.0499 75.9829 47.9817 75.9898 47.9158 75.9898L47.9181 75.9875Z" fill="#1E1E1E"/>
<path d="M74.9238 32.8708C74.5148 32.8708 74.1467 32.5884 74.0536 32.1739C71.086 19.1158 60.7494 8.75626 47.7201 5.78208C47.2384 5.67277 46.9362 5.19225 47.0475 4.70946C47.1566 4.22667 47.636 3.92606 48.1177 4.03537C54.8596 5.57484 61.0198 8.99082 65.937 13.9189C70.8542 18.8471 74.2626 25.0209 75.7987 31.7777C75.9077 32.2605 75.6078 32.741 75.1261 32.8503C75.0602 32.8663 74.992 32.8731 74.9261 32.8731L74.9238 32.8708Z" fill="#1E1E1E"/>
<path d="M39.9126 8.023C37.7062 8.023 35.9111 6.22392 35.9111 4.01264C35.9111 1.80136 37.704 0 39.9126 0C42.1213 0 43.9141 1.79908 43.9141 4.01036C43.9141 6.22164 42.119 8.02072 39.9126 8.02072V8.023ZM39.9126 1.34362C38.4447 1.34362 37.2518 2.53921 37.2518 4.01036C37.2518 5.48151 38.4447 6.6771 39.9126 6.6771C41.3805 6.6771 42.5735 5.48151 42.5735 4.01036C42.5735 2.53921 41.3805 1.34362 39.9126 1.34362Z" fill="#1E1E1E"/>
<path d="M39.9126 80C37.7062 80 35.9111 78.2009 35.9111 75.9896C35.9111 73.7783 37.7062 71.9792 39.9126 71.9792C42.119 71.9792 43.9141 73.7783 43.9141 75.9896C43.9141 78.2009 42.119 80 39.9126 80ZM39.9126 73.3206C38.4447 73.3206 37.2518 74.5162 37.2518 75.9873C37.2518 77.4585 38.4447 78.6541 39.9126 78.6541C41.3805 78.6541 42.5735 77.4585 42.5735 75.9873C42.5735 74.5162 41.3805 73.3206 39.9126 73.3206Z" fill="#1E1E1E"/>
<path d="M4.00149 44.0114C1.7951 44.0114 0 42.2124 0 40.0011C0 37.7898 1.7951 35.9907 4.00149 35.9907C6.20787 35.9907 8.00297 37.7898 8.00297 40.0011C8.00297 42.2124 6.20787 44.0114 4.00149 44.0114ZM4.00149 37.3321C2.53359 37.3321 1.34065 38.5277 1.34065 39.9988C1.34065 41.47 2.53359 42.6656 4.00149 42.6656C5.46938 42.6656 6.66233 41.47 6.66233 39.9988C6.66233 38.5277 5.46938 37.3321 4.00149 37.3321Z" fill="#1E1E1E"/>
<path d="M75.8218 44.0114C73.6154 44.0114 71.8203 42.2124 71.8203 40.0011C71.8203 37.7898 73.6154 35.9907 75.8218 35.9907C78.0282 35.9907 79.8233 37.7898 79.8233 40.0011C79.8233 42.2124 78.0282 44.0114 75.8218 44.0114ZM75.8218 37.3321C74.3539 37.3321 73.161 38.5277 73.161 39.9988C73.161 41.47 74.3539 42.6656 75.8218 42.6656C77.2897 42.6656 78.4826 41.47 78.4826 39.9988C78.4826 38.5277 77.2897 37.3321 75.8218 37.3321Z" fill="#1E1E1E"/>
<path d="M62.5403 26.8064L61.6519 26.2917L46.9888 17.8064L45.4391 16.9092L43.8894 17.8064L26.2906 27.9906L25.6748 28.3459L24.7409 28.8856V35.007L22.0415 36.5693L21.4257 36.9268L20.494 37.4666V43.5812L18.1718 44.9225L17.556 45.28L16.6221 45.822V52.7542L18.1718 53.6515L32.9393 62.196L33.8232 62.7084L34.489 63.0932L35.3707 62.5831L36.0387 62.1983L39.863 59.9847L41.4127 59.0874L53.533 52.0733L55.0827 51.1783V45.0614L57.4027 43.7178L58.9547 42.8228V36.7014L61.6519 35.1391L63.2038 34.2419V27.1867L62.5403 26.8064ZM45.4391 18.7014L60.9906 27.7014L51.4539 33.2194H51.4516L43.4918 37.8264L42.776 38.2431L41.9421 37.7603L27.2223 29.2431L45.4391 18.7014ZM26.2929 30.498L41.2263 39.1381L41.9421 39.5549V43.9797L26.2929 34.9228V30.498ZM25.5885 36.3097L26.2929 36.7173L41.0582 45.2595L41.14 45.3074L39.2426 46.4073L38.5269 46.8218L37.6929 46.3413L28.2584 40.8803L26.7087 39.983L22.9731 37.8241L25.5885 36.3097ZM22.0415 39.0789L36.9749 47.7191L37.6929 48.1335V52.5606L22.0415 43.5037V39.0789ZM33.8232 60.9139L18.1718 51.8592V47.4344L33.1052 56.0745L33.8232 56.489V60.9139ZM34.6549 55.1773L33.8232 54.6968L19.1034 46.1773L21.3348 44.8861L22.0415 45.296L36.8113 53.8405L36.8863 53.886L35.3707 54.7628L34.6549 55.1773ZM53.533 50.281L39.8607 58.1902L38.3133 59.0874L35.3707 60.7886V56.5573L36.2046 56.0745L53.533 46.0452V50.281ZM57.4027 41.9256L43.7327 49.8347L42.183 50.7319L39.2426 52.4331V48.2018L40.0766 47.7191L49.1361 42.4744L50.6858 41.5794H50.6881L57.4027 37.692V41.9256ZM61.6519 33.3446L49.0543 40.6343L47.9818 41.256L47.5046 41.5316L46.4321 42.151L43.4918 43.8544V39.6209L44.3234 39.1381L61.6519 29.1111V33.3446Z" fill="#1E1E1E"/>
<path d="M53.5334 46.0452V50.281L39.8611 58.1901L38.3137 59.0874L35.3711 60.7885V56.5573L36.205 56.0745L53.5334 46.0452Z" fill="url(#paint0_linear_366_377)"/>
<path d="M57.4023 37.6919V41.9254L43.7322 49.8346L42.1825 50.7318L39.2422 52.433V48.2017L40.0761 47.7189L49.1357 42.4743L50.6854 41.5793H50.6877L57.4023 37.6919Z" fill="url(#paint1_linear_366_377)"/>
<path d="M61.6523 29.1111V33.3446L49.0547 40.6343L47.9822 41.256L47.505 41.5316L46.4325 42.151L43.4922 43.8545V39.6209L44.3238 39.1381L61.6523 29.1111Z" fill="url(#paint2_linear_366_377)"/>
</g>
<defs>
<linearGradient id="paint0_linear_366_377" x1="35.3711" y1="53.4169" x2="53.5334" y2="53.4169" gradientUnits="userSpaceOnUse">
<stop stop-color="white"/>
<stop offset="0.1" stop-color="#EDEDED"/>
<stop offset="0.31" stop-color="#BFBFBF"/>
<stop offset="0.59" stop-color="#747474"/>
<stop offset="0.95" stop-color="#0F0F0F"/>
<stop offset="1"/>
</linearGradient>
<linearGradient id="paint1_linear_366_377" x1="48.3222" y1="37.6919" x2="48.3222" y2="52.433" gradientUnits="userSpaceOnUse">
<stop stop-color="white"/>
<stop offset="0.1" stop-color="#EDEDED"/>
<stop offset="0.31" stop-color="#BFBFBF"/>
<stop offset="0.59" stop-color="#747474"/>
<stop offset="0.95" stop-color="#0F0F0F"/>
<stop offset="1"/>
</linearGradient>
<linearGradient id="paint2_linear_366_377" x1="43.4922" y1="36.4828" x2="61.6523" y2="36.4828" gradientUnits="userSpaceOnUse">
<stop stop-color="white"/>
<stop offset="0.1" stop-color="#EDEDED"/>
<stop offset="0.31" stop-color="#BFBFBF"/>
<stop offset="0.59" stop-color="#747474"/>
<stop offset="0.95" stop-color="#0F0F0F"/>
<stop offset="1"/>
</linearGradient>
<clipPath id="clip0_366_377">
<rect width="324" height="80" fill="white"/>
</clipPath>
</defs>
</svg>
